# xmcd
#
# Track frame offsets:
# 150
# 16029
# 30061
# 43379
# 59237
# 76317
# 92423
# 108658
# 124172
# 139139
# 161917
# 177116
#
# Disc length: 2587 seconds
#
#
# Revision: 0
# Processed by: cddbd v1.5.1PL0 Copyright (c) Steve Scherf et al.
# Submitted via: FreeRIP 2.941 
#
DISCID=9a0a190c
DTITLE=camponês - no forró apimentado
DYEAR=2000
DGENRE=Folklore
TTITLE0=forró rasgado
TTITLE1=forró apimentado
TTITLE2=peso pesado
TTITLE3=esse barco vira
TTITLE4=xote fulero
TTITLE5=ex noiva
TTITLE6=sem tempo para amar
TTITLE7=adeus morena
TTITLE8=viúva caridosa
TTITLE9=cowboy da cidade
TTITLE10=estrela santa
TTITLE11=estou de volta
EXTD=col. danielsan
EXTT0=
EXTT1=
EXTT2=
EXTT3=
EXTT4=
EXTT5=
EXTT6=
EXTT7=
EXTT8=
EXTT9=
EXTT10=
EXTT11=
PLAYORDER=
